PathFileType	3	(X/Y/Z)	D:\VICON_DB\Goncalves\Pilot01\09-03-2026\bw_sq_120_01.trc
DataRate	CameraRate	NumFrames	NumMarkers	Units	OrigDataRate	OrigDataStartFrame	OrigNumFrames
200.0	200.0	10	34	mm	200.0	183	730	
Frame#	Time	LASI			RASI			LPSI			RPSI			LTHI			LTHAP			LTHAD			LKNE			LKNM			LTIB			LTIAP			LTIAD			LANK			LMED			LHEE			LTOE			LFMH			LSMH			LVMH			RTHI			RTHAP			RTHAD			RKNE			RKNM			RTIB			RTIAP			RTIAD			RANK			RMED			RHEE			RTOE			RFMH			RSMH			RVMH			
		X1	Y1	Z1	X2	Y2	Z2	X3	Y3	Z3	X4	Y4	Z4	X5	Y5	Z5	X6	Y6	Z6	X7	Y7	Z7	X8	Y8	Z8	X9	Y9	Z9	X10	Y10	Z10	X11	Y11	Z11	X12	Y12	Z12	X13	Y13	Z13	X14	Y14	Z14	X15	Y15	Z15	X16	Y16	Z16	X17	Y17	Z17	X18	Y18	Z18	X19	Y19	Z19	X20	Y20	Z20	X21	Y21	Z21	X22	Y22	Z22	X23	Y23	Z23	X24	Y24	Z24	X25	Y25	Z25	X26	Y26	Z26	X27	Y27	Z27	X28	Y28	Z28	X29	Y29	Z29	X30	Y30	Z30	X31	Y31	Z31	X32	Y32	Z32	X33	Y33	Z33	X34	Y34	Z34	
183	0.91	197.12209	832.79492	-1085.8557	198.67366	838.21948	-1344.6262				384.25424	913.14734	-1245.0992	175.68526	690.85077	-1007.8603	216.51135	745.65228	-1018.5405	195.55696	625.69489	-963.31537	171.64598	464.74911	-950.25488				227.66718	275.94034	-925.76062	141.40741	336.31995	-967.4798	187.91551	239.14464	-943.27673	285.50574	71.512398	-946.64667				320.37677	65.912331	-1002.9707	204.90324	71.176399	-954.12451	147.00067	45.358593	-974.43127				168.50879	24.18177	-896.9621	184.89622	621.06738	-1447.5336	191.41928	738.72333	-1395.4873	143.10846	665.65765	-1396.4219	167.9841	479.51422	-1446.9127				193.41389	287.50174	-1477.349	132.49536	326.72232	-1430.9335	157.16595	247.63884	-1433.5913	277.01758	63.925362	-1455.9359				307.49417	60.856167	-1408.1156	185.28108	69.374863	-1450.2855	132.79559	49.977886	-1433.9788				156.17693	17.763321	-1503.7015
184	0.915	198.33998	830.81964	-1086.0348	199.82127	836.36993	-1344.8339				385.25241	911.56183	-1245.2903	176.59782	690.19958	-1007.8056	217.7365	744.63501	-1018.6271	196.01909	625.05676	-963.05859	170.94662	464.33792	-949.55774				227.03012	275.64368	-925.35376	140.55374	335.88766	-966.91638	187.3705	238.77155	-942.93311	285.42587	71.477203	-946.63861				320.32397	65.964142	-1002.9453	204.87427	71.168571	-954.1145	147.00163	45.350666	-974.43018				168.50777	24.195042	-896.95654	185.15285	620.36694	-1447.9496	192.44867	737.76843	-1395.7308	143.72652	665.14191	-1396.6976	167.071	479.00891	-1447.5768				192.55171	287.10648	-1477.7772	131.47066	326.21732	-1431.4418	156.47679	247.21649	-1433.9269	276.96402	63.88784	-1455.9952				307.45438	60.899258	-1408.1697	185.26503	69.354332	-1450.3275	132.79449	49.972298	-1434.0052				156.17442	17.745239	-1503.7301
185	0.92	199.55168	828.83728	-1086.2178	200.9576	834.50464	-1345.0427				386.23306	909.98285	-1245.4906	177.50748	689.54083	-1007.7756	218.95668	743.61005	-1018.7348	196.48088	624.41962	-962.81848	170.26445	463.92947	-948.86603				226.40305	275.34763	-924.95142	139.71471	335.45853	-966.3595	186.83438	238.40161	-942.59351	285.34616	71.444321	-946.62939				320.27295	66.014488	-1002.9208	204.84512	71.160141	-954.10388	147.00278	45.343838	-974.42889				168.50676	24.214176	-896.94861	185.39925	619.65991	-1448.3441	193.46716	736.80573	-1395.9647	144.33392	664.61743	-1396.9541	166.16425	478.50098	-1448.2222				191.69385	286.71329	-1478.1908	130.45517	325.71252	-1431.9292	155.79242	246.7944	-1434.2471	276.90851	63.851765	-1456.0515				307.41254	60.942387	-1408.2208	185.24675	69.334885	-1450.3635	132.79256	49.965939	-1434.0267				156.17149	17.729761	-1503.7552
186	0.925	200.75616	826.84839	-1086.4044	202.08224	832.625	-1345.2528				387.19492	908.41248	-1245.7006	178.41278	688.87616	-1007.7687	220.1705	742.57971	-1018.8626	196.94167	623.78461	-962.59454	169.59874	463.52411	-948.17938				225.7867	275.05212	-924.55353	138.88962	335.03223	-965.80786	186.30762	238.03477	-942.2569	285.26755	71.412933	-946.61969				320.22372	66.06324	-1002.8969	204.81599	71.151161	-954.09253	147.00392	45.338127	-974.42725				168.506	24.239347	-896.93823	185.63678	618.94537	-1448.717	194.47476	735.83594	-1396.1897	144.93123	664.08453	-1397.1918	165.26413	477.99033	-1448.8477				190.83998	286.32205	-1478.588	129.44872	325.2081	-1432.3939	155.11264	246.37274	-1434.55	276.85114	63.817657	-1456.1042				307.3685	60.98579	-1408.2687	185.226	69.316696	-1450.3927	132.78947	49.958889	-1434.0427				156.1684	17.717218	-1503.7766
187	0.93	201.95244	824.85315	-1086.5947	203.19492	830.73199	-1345.4642				388.13803	906.8515	-1245.9204	179.31265	688.20685	-1007.7832	221.37685	741.54565	-1019.0085	197.4008	623.1521	-962.38623	168.94853	463.12213	-947.4975				225.18175	274.75729	-924.15973	138.07767	334.60852	-965.26007	185.7906	237.67088	-941.922	285.19116	71.382362	-946.61005				320.17596	66.110291	-1002.8741	204.78705	71.141777	-954.08014	147.00499	45.333576	-974.42529				168.50584	24.270523	-896.92542	185.86676	618.22205	-1449.0685	195.47159	734.85883	-1396.4062	145.51904	663.5434	-1397.4121	164.3708	477.47681	-1449.4526				189.98985	285.93271	-1478.9681	128.45097	324.70398	-1432.8344	154.43735	245.95166	-1434.8344	276.79205	63.786037	-1456.1531				307.3223	61.029671	-1408.3126	185.20261	69.299835	-1450.4153	132.78506	49.951279	-1434.0532				156.1653	17.707869	-1503.7938
188	0.935	203.13969	822.85175	-1086.7881	204.29538	828.82684	-1345.6772				389.06427	905.29913	-1246.1492	180.20641	687.53412	-1007.8167	222.57501	740.5094	-1019.1703	197.85791	622.52228	-962.19299	168.3125	462.72363	-946.81989				224.58856	274.4632	-923.76971	137.27792	334.18719	-964.71497	185.28346	237.30983	-941.58765	285.11783	71.351997	-946.60077				320.12955	66.155647	-1002.8522	204.75841	71.132164	-954.06677	147.00592	45.330238	-974.4231				168.50674	24.307375	-896.91046	186.09056	617.48889	-1449.3992	196.45799	733.87427	-1396.616	146.09818	662.99396	-1397.6163	163.48434	476.96033	-1450.0367				189.14319	285.54504	-1479.3302	127.46165	324.20029	-1433.25	153.76651	245.53119	-1435.0994	276.73126	63.757359	-1456.1975				307.27396	61.074203	-1408.3523	185.17654	69.284302	-1450.4303	132.7793	49.943275	-1434.0583				156.16238	17.701902	-1503.8069
189	0.94	204.31709	820.84412	-1086.9845	205.38353	826.91071	-1345.8928				389.97659	903.75293	-1246.3856	181.09377	686.85834	-1007.8671	223.7645	739.47168	-1019.3456	198.31281	621.89502	-962.01428	167.68932	462.32867	-946.14661				224.00726	274.16986	-923.38306	136.48952	333.76773	-964.17126	184.78619	236.95137	-941.25311	285.04837	71.321228	-946.59247				320.08417	66.199356	-1002.8316	204.73027	71.122467	-954.05206	147.00656	45.328178	-974.42047				168.50914	24.349205	-896.89429	186.30934	616.74451	-1449.71	197.43445	732.88165	-1396.8199	146.66936	662.43622	-1397.8062	162.60466	476.44083	-1450.6008				188.2999	285.15875	-1479.674	126.48035	323.6969	-1433.6405	153.10001	245.11122	-1435.3446	276.66898	63.73196	-1456.2371				307.22354	61.119541	-1408.387	185.14792	69.270058	-1450.4381	132.77217	49.935066	-1434.0582				156.15971	17.699385	-1503.8154
190	0.945	205.48398	818.82983	-1087.1843	206.45918	824.98462	-1346.1108				390.8775	902.2099	-1246.6283	181.97488	686.17969	-1007.9319	224.94524	738.43268	-1019.5322	198.76553	621.26923	-961.84924	167.07739	461.93692	-945.47729				223.43764	273.87729	-922.99927	135.71141	333.34964	-963.62836	184.29849	236.59526	-940.91772	284.98343	71.289406	-946.58527				320.03955	66.24144	-1002.812	204.70284	71.112892	-954.03632	147.00682	45.327431	-974.41754				168.51358	24.394932	-896.87756	186.52377	615.98853	-1450.0029	198.40141	731.88062	-1397.0193	147.23332	661.87006	-1397.9833	161.73157	475.91821	-1451.1458				187.45996	284.7735	-1479.9999	125.50665	323.19376	-1434.0066	152.43765	244.69176	-1435.5704	276.60535	63.710056	-1456.2722				307.1712	61.165752	-1408.4163	185.11691	69.256966	-1450.439	132.76382	49.926823	-1434.0532				156.15746	17.700277	-1503.8196
191	0.95	206.63977	816.80847	-1087.3872	207.52226	823.04919	-1346.3319				391.76877	900.66699	-1246.8761	182.85022	685.49786	-1008.0091	226.1174	737.39203	-1019.727	199.2164	620.6438	-961.69751	166.47519	461.54797	-944.81201				222.87915	273.58551	-922.61792	134.94276	332.93237	-963.08551	183.81985	236.24115	-940.58118	284.92355	71.255989	-946.57941				319.99539	66.281975	-1002.794	204.6763	71.103615	-954.01935	147.00665	45.327999	-974.41443				168.52057	24.443357	-896.86157	186.73419	615.22101	-1450.2798	199.35928	730.87067	-1397.2153	147.79068	661.29535	-1398.1497	160.86487	475.3924	-1451.673				186.6235	284.38895	-1480.3088	124.54017	322.69073	-1434.3499	151.77933	244.27274	-1435.7783	276.54059	63.691696	-1456.303				307.11707	61.212879	-1408.4402	185.08392	69.244835	-1450.4332	132.75439	49.918709	-1434.0438				156.15559	17.704395	-1503.8199
192	0.955	207.78401	814.7793	-1087.5936	208.57271	821.10486	-1346.5566				392.65103	899.12134	-1247.1284	183.72055	684.81201	-1008.096	227.28146	736.34857	-1019.9276	199.666	620.01666	-961.55835	165.88121	461.16113	-944.15082				222.33096	273.29422	-922.23883	134.18269	332.51535	-962.54297	183.34967	235.88867	-940.24384	284.86917	71.220551	-946.5752				319.95148	66.320969	-1002.7776	204.65077	71.094826	-954.0014	147.00598	45.329811	-974.41095				168.53047	24.493338	-896.84711	186.94055	614.44226	-1450.5436	200.30844	729.85175	-1397.4095	148.34186	660.7121	-1398.3068	160.00427	474.86334	-1452.1848				185.79082	284.00479	-1480.6022	123.58046	322.18762	-1434.6726	151.12479	243.85428	-1435.9696	276.47479	63.676811	-1456.3298				307.06137	61.260868	-1408.4586	185.04939	69.233414	-1450.4216	132.74411	49.910824	-1434.0305				156.15428	17.711401	-1503.8167
